<svg xmlns="http://www.w3.org/2000/svg" xmlns:xlink="http://www.w3.org/1999/xlink" width="800" height="800"><defs><linearGradient id="a"><stop offset="0" stop-color="#00324b"/></linearGradient><linearGradient xlink:href="#a" id="b" x1="27" x2="89.7" y1="90.3" y2="90.3" gradientTransform="matrix(6.74218 0 0 5.77625 -37.4 -212.8)" gradientUnits="userSpaceOnUse"/></defs><circle cx="282.1" cy="30.8" r="326" fill="#00324b" transform="translate(53.8 362.2) scale(1.227)"/><path fill="#fafafa" d="M272.2 70.6a20 20 0 0 0-6.9 1.4c-11.2 14.2.4 46.4 7.4 63a98 98 0 0 0-23.5 62.4c0 17.9 5.4 35.2 15.3 51 1.2 6.9 2 13.8 1.3 21.4a148.6 148.6 0 0 1-12.4 45.3c-22.8 29.3-34 65-34.5 105.7v4.3c1 79.4 47.2 176.7 90.3 259 16.2 37.6 28.6 65 28.6 65s20 4.7 48.6 5.8l2.2.1c3.6.2 7.5.2 11.4.2 4 0 7.8 0 11.4-.2h2.2c28.6-1.2 48.6-5.8 48.6-5.8s12.4-27.5 28.6-65.2c43.1-82.2 89.3-179.5 90.3-258.9v-4.3c-.6-40.7-11.7-76.4-34.5-105.7-6-14.5-11-29.2-12.4-45.3-.7-7.6 0-14.5 1.3-21.4a95.8 95.8 0 0 0 15.3-51 98 98 0 0 0-23.5-62.5c7-16.5 18.6-48.7 7.4-62.9a20 20 0 0 0-6.9-1.4C510.3 70 486 86.7 473.9 96c-20.9-9-44.8-14-70.3-14h-7.2a179 179 0 0 0-70.3 14c-12-9.2-36.4-25.9-54-25.3z"/><path fill="url(#b)" d="M144.6 258.1h423.1v101.2H144.6z" transform="translate(43.9 295.2)"/><path fill="#fafafa" stroke="#fafafa" stroke-linecap="round" stroke-width="65.4" d="M240 603.8h320"/><g fill="#053e57" transform="translate(-4.5 -5.7) scale(6.74218)"><circle cx="51.3" cy="30.1" r="8"/><circle cx="68.7" cy="30.1" r="8"/><path d="M60 34.9c-.7 0-1.3.7-1.8 1.4-.4.5-.7 1.1-.9 1.6.5 3.2 2.7 6.7 2.7 6.7s2.2-3.5 2.7-6.7c-.2-.5-.5-1-1-1.6-.4-.7-1-1.4-1.7-1.4z"/></g></svg>